<?xml version="1.0" ?><svg enable-background="new 0 0 32 32" id="Layer_1" version="1.1" viewBox="0 0 32 32" xml:space="preserve" xmlns="http://www.w3.org/2000/svg" xmlns:xlink="http://www.w3.org/1999/xlink"><g><path d="M15.945,32.001l-4-7.373H3.36V-0.001h25.28v24.629h-8.695L15.945,32.001z M4.36,23.628h8.18l3.405,6.275l3.404-6.275h8.291   V0.999H4.36V23.628z"/></g><g id="Cat_2_"><path d="M18.894,20.291h-2.125h-2.127c0,0,0.005-1.264,0-2.131c-2.91,0.627-3.722-1.598-3.722-1.598   c-0.531-1.066-1.064-1.598-1.064-1.598c-1.064-0.633,0-0.532,0-0.532c1.064,0,1.595,1.066,1.595,1.066   c0.933,1.587,2.593,1.332,3.191,1.066c0-0.532,0.233-1.339,0.531-1.598c-2.322-0.262-4.256-1.598-4.256-4.262   s0.533-3.197,1.066-3.729c-0.108-0.262-0.553-1.233,0.016-2.664c0,0,1.044,0,2.108,1.598c0.527-0.528,2.127-0.532,2.659-0.532   c0.53,0,2.131,0.004,2.657,0.532c1.064-1.598,2.111-1.598,2.111-1.598c0.569,1.431,0.124,2.401,0.016,2.664   c0.531,0.532,1.064,1.066,1.064,3.729s-1.931,4-4.254,4.262c0.3,0.26,0.531,1.177,0.531,1.598L18.894,20.291L18.894,20.291z"/></g></svg>